<svg width="188" height="432" viewBox="0 0 188 432" fill="none" xmlns="http://www.w3.org/2000/svg">
<path d="M7 388.812H0C0 392.678 3.13401 395.812 7 395.812L7 388.812ZM97.3363 425H90.3363C90.3363 427.357 91.5226 429.556 93.4926 430.85C95.4626 432.145 97.9518 432.361 100.115 431.425L97.3363 425ZM181 388.812L183.779 395.237L188 393.411V388.812H181ZM126.92 204.306C126.92 200.44 123.786 197.306 119.92 197.306C116.054 197.306 112.92 200.44 112.92 204.306H126.92ZM112.92 240.494C112.92 244.36 116.054 247.494 119.92 247.494C123.786 247.494 126.92 244.36 126.92 240.494H112.92ZM107.494 23.4405L101.182 20.4138L107.494 23.4405ZM98.7233 52.1501L91.7976 51.1329L98.7233 52.1501ZM122.997 10.3315L120.089 3.96434L122.997 10.3315ZM161.426 23.093L167.565 19.7305L161.426 23.093ZM150.092 11.556L146.621 17.6349L150.092 11.556ZM176.283 59.9747L169.414 61.3223L176.283 59.9747ZM97.8669 57.9813L90.9412 56.9642L97.8669 57.9813ZM180.065 79.2533L186.934 77.9058L180.065 79.2533ZM69.6178 25.4077L66.2963 19.2459L66.2963 19.2459L69.6178 25.4077ZM11.4956 93.5159L5.12501 90.615L11.4956 93.5159ZM14 388.812V114.237H0V388.812H14ZM65.3579 35.6563L72.9394 31.5694L66.2963 19.2459L58.7148 23.3328L65.3579 35.6563ZM107.994 22.7228H111.195V8.72276H107.994V22.7228ZM100.115 431.425L183.779 395.237L178.221 382.388L94.5573 418.575L100.115 431.425ZM188 388.812V88.8787H174V388.812H188ZM186.934 77.9058L183.152 58.6272L169.414 61.3223L173.196 80.6009L186.934 77.9058ZM172 27.8268L167.565 19.7305L155.286 26.4556L159.721 34.5519L172 27.8268ZM120.089 3.96434L108.286 9.35558L114.103 22.0899L125.906 16.6987L120.089 3.96434ZM112.92 204.306V240.494H126.92V204.306H112.92ZM17.8662 96.4168L26.7157 76.9826L13.9745 71.1808L5.12501 90.615L17.8662 96.4168ZM104.883 12.696L101.182 20.4138L113.805 26.4673L117.506 18.7495L104.883 12.696ZM91.7976 51.1329L90.9412 56.9642L104.793 58.9984L105.649 53.1672L91.7976 51.1329ZM90.3363 65.2464V388.812H104.336V65.2464H90.3363ZM90.3363 388.812V425H104.336V388.812H90.3363ZM7 395.812H97.3363V381.812H7V395.812ZM101.182 20.4138C96.5259 30.123 93.3621 40.4794 91.7976 51.1329L105.649 53.1672C107.009 43.9075 109.759 34.9062 113.805 26.4673L101.182 20.4138ZM153.563 5.47717C143.298 -0.383715 130.84 -0.946735 120.089 3.96434L125.906 16.6987C132.559 13.6595 140.269 14.0079 146.621 17.6349L153.563 5.47717ZM167.565 19.7305C164.305 13.7767 159.458 8.84307 153.563 5.47717L146.621 17.6349C150.269 19.7179 153.269 22.7711 155.286 26.4556L167.565 19.7305ZM183.152 58.6272C181.037 47.8489 177.276 37.4603 172 27.8268L159.721 34.5519C164.307 42.9249 167.576 51.9542 169.414 61.3223L183.152 58.6272ZM90.9412 56.9642C90.5384 59.7065 90.3363 62.4746 90.3363 65.2464H104.336C104.336 63.1554 104.489 61.0672 104.793 58.9984L90.9412 56.9642ZM188 88.8787C188 85.1952 187.643 81.5204 186.934 77.9058L173.196 80.6009C173.731 83.3277 174 86.0999 174 88.8787H188ZM72.9394 31.5694C83.7113 25.7627 95.7571 22.7228 107.994 22.7228V8.72276C93.438 8.72276 79.1095 12.3388 66.2963 19.2459L72.9394 31.5694ZM58.7148 23.3328C38.9789 33.9717 23.266 50.7759 13.9745 71.1808L26.7157 76.9826C34.7408 59.359 48.312 44.8451 65.3579 35.6563L58.7148 23.3328ZM14 114.237C14 108.089 15.3184 102.012 17.8662 96.4168L5.12501 90.615C1.74762 98.032 0 106.087 0 114.237H14Z" fill="black"/>
</svg>
