<svg width="248" height="466" viewBox="0 0 248 466" fill="none" xmlns="http://www.w3.org/2000/svg">
<path d="M166 173L169.085 168.116C186.502 140.538 193.958 107.831 190.213 75.4292L185.872 37.8718C184.984 30.1838 181.522 23.0219 176.05 17.5495V17.5495C169.615 11.1149 160.888 7.5 151.788 7.5H94.7829C85.9109 7.5 77.3542 10.7902 70.7676 16.7341V16.7341C64.1599 22.6971 60.007 30.9052 59.117 39.7611L55.247 78.2675C52.1731 108.853 59.5399 139.579 76.1487 165.445L81 173M166 173V173C140.871 183.309 112.839 184.075 87.1852 175.151L81 173M166 173L184.5 240.5M81 173L68 262.5M127 78L135.894 142.037C136.479 146.246 133.209 150 128.961 150H107M68 262.5L126.25 251.5L184.5 240.5M68 262.5L54.6859 266.144C33.4126 271.966 16.6258 288.315 10.2431 309.427V309.427C8.42427 315.443 7.5 321.694 7.5 327.979V403.168C7.5 416.233 12.4617 428.81 21.3816 438.356V438.356C30.7395 448.37 43.7011 454.245 57.4004 454.681L161.8 458.001C171.053 458.295 179.341 452.318 181.984 443.446V443.446C183.59 438.056 182.897 432.243 180.07 427.381L166 403.181M184.5 240.5H196.258C213.769 240.5 229.67 250.715 236.95 266.64V266.64C239.619 272.478 241 278.822 241 285.242V355.385C241 367.624 236.138 379.362 227.483 388.017V388.017C219.445 396.055 208.723 400.843 197.372 401.464L166 403.181M50.5 409.5V409.5C41.4839 403.904 36 394.046 36 383.434V331.5M50.5 409.5L166 403.181M50.5 409.5V401.018C50.5 389.316 56.9626 378.571 67.2994 373.086V373.086C72.3391 370.412 78.0085 369.151 83.7066 369.437L172.78 373.911C180.418 374.295 187.995 372.38 194.533 368.414V368.414C207.053 360.82 214.138 346.745 212.779 332.166L207.5 275.5" stroke="black" stroke-width="14"/>
</svg>
