<svg width="231" height="244" viewBox="0 0 231 244" fill="none" xmlns="http://www.w3.org/2000/svg">
<path d="M120.039 186.417C117.133 188.3 113.719 189.146 110.31 189.753L91.1404 193.164L109.447 196.733C113.89 197.599 118.303 198.967 121.695 201.964C123.801 203.824 125.976 206.129 128.016 208.733C131.523 213.209 133.256 218.744 134.198 224.351L136.53 238.219L139.358 223C140.339 217.726 141.989 212.522 145.087 208.142C145.865 207.041 146.615 206.079 147.352 205.218C152.065 199.713 159.323 197.308 166.431 195.898L180.4 193.129L165.607 190.451C159.488 189.343 153.392 187.374 148.784 183.198C146.025 180.698 143.797 177.966 142.176 174.914C140.97 172.642 140.39 170.109 139.92 167.58L136.429 148.798L133.529 166.043C133.027 169.033 132.35 172.026 130.908 174.693C128.03 180.017 123.92 183.903 120.039 186.417Z" stroke="black" stroke-width="10" stroke-linejoin="round"/>
<path d="M165.429 42.6982C162.523 44.5808 159.109 45.4269 155.7 46.0336L136.53 49.4453L154.837 53.0135C159.279 53.8794 163.693 55.248 167.085 58.2443C169.191 60.1044 171.365 62.4099 173.405 65.0135C176.912 69.4896 178.644 75.0243 179.587 80.6322L181.919 94.4999L184.747 79.2814C185.727 74.0071 187.377 68.8029 190.475 64.4232C191.254 63.3221 192.003 62.3601 192.741 61.4985C197.453 55.9941 204.711 53.5885 211.819 52.1793L225.788 49.4095L210.996 46.7316C204.877 45.6237 198.78 43.6547 194.172 39.4786C191.414 36.979 189.186 34.2469 187.565 31.1945C186.358 28.9231 185.778 26.3895 185.308 23.8609L181.818 5.07837L178.918 22.324C178.415 25.3141 177.739 28.3063 176.297 30.9735C173.418 36.298 169.309 40.1841 165.429 42.6982Z" stroke="black" stroke-width="10" stroke-linejoin="round"/>
</svg>
