<svg width="227" height="248" viewBox="0 0 227 248" fill="none" xmlns="http://www.w3.org/2000/svg">
<path d="M126.5 7C126.5 7 95.25 11 78.5 18.5C61.75 26 53.4258 35.5782 39 48.0002C20.7824 63.6872 12.1218 96.9369 8.41738 116.884C6.44371 127.512 7.14966 138.396 10.3589 148.718C14.615 162.407 21.8564 181.905 31.5 194C57.1442 226.164 85.7101 244.821 126.5 239.5C158.83 235.283 177.103 220.207 196.5 194C211.646 173.536 220.571 158.437 219.5 133C218.536 110.099 211.721 96.138 196.5 79.0002C176.646 56.6466 156.35 46.3083 126.5 48.0002C99.9948 49.5024 82.0081 57.8218 66 79.0002C52.7704 96.5026 48.0355 111.199 50.5 133C52.7955 153.306 58.7382 166.493 74.5 179.5C90.7604 192.918 105.934 198.635 126.5 194C141.769 190.559 150.022 184.059 160 172C170.448 159.373 177.001 149.321 175.5 133C173.192 107.903 151.289 86.4472 126.5 91.0002C105.744 94.8124 84.6592 113.408 92.5 133C98.1515 147.122 113.426 159.773 126.5 152C133.87 147.619 143.256 138.634 138.5 131.5C135.5 127 128.218 129.348 124.5 131.5" stroke="black" stroke-width="14" stroke-linecap="round" stroke-linejoin="round"/>
</svg>
